<?xml version="1.0" encoding="UTF-8" standalone="no"?>
<svg xmlns="http://www.w3.org/2000/svg" viewBox="0 0 300 300">
  <path fill="#326ce5" d="M150 15c-5.7 0-11.2 1.3-16.2 3.8L48.6 61.9c-10 5-17.7 14.3-20.4 25.3L8 194c-2.7 11 0.5 22.6 8.3 31l71.3 71.3c8.4 7.8 20 11 31 8.3l106.8-20.1c11-2.7 20.3-10.4 25.3-20.4l43.1-85.2c5-10 5-21.5 0-31.4l-43.1-85.2c-5-10-14.3-17.7-25.3-20.4L118.5 21c-5-1.3-10.5-2-16.2-2-0.8 0-1.6 0-2.3 0z"/>
  <path fill="#fff" d="M150 26.2c-4.7 0-9.2 1.1-13.3 3.1l-70.1 35.2c-8.2 4.1-14.4 11.7-16.6 20.7L30.7 179c-2.2 9 0.4 18.4 6.8 25.4l58.2 58.2c6.8 6.4 16.4 9 25.4 6.8l93.9-17.7c9-2.2 16.6-8.4 20.7-16.6l35.2-70.1c4.1-8.2 4.1-17.5 0-25.7l-35.2-70.1c-4.1-8.2-11.7-14.4-20.7-16.6L122.1 35c-4.1-1-8.7-1.7-13.3-1.7-0.7 0-1.3 0-1.9 0z"/>
  <path fill="#326ce5" d="M147.7 94c-2.4 0-4.4 2-4.4 4.4v50h-50c-2.4 0-4.4 2-4.4 4.4 0 2.4 2 4.4 4.4 4.4h50v50c0 2.4 2 4.4 4.4 4.4 2.4 0 4.4-2 4.4-4.4v-50h50c2.4 0 4.4-2 4.4-4.4 0-2.4-2-4.4-4.4-4.4h-50v-50c0-2.4-2-4.4-4.4-4.4z"/>
</svg>
